<?xml version="1.0" encoding="iso-8859-1"?>
<!-- Generator: Adobe Illustrator 19.0.0, SVG Export Plug-In . SVG Version: 6.00 Build 0)  -->
<svg version="1.1" id="Layer_1" xmlns="http://www.w3.org/2000/svg" xmlns:xlink="http://www.w3.org/1999/xlink" x="0px" y="0px"
	 viewBox="0 0 392.591 392.591" style="enable-background:new 0 0 392.591 392.591;" xml:space="preserve">
<path style="fill:#FFFFFF;" d="M207.35,258.844c0-38.271,31.16-69.366,69.366-69.366c8.986,0,17.519,1.745,25.471,4.913V31.483
	c0-5.301-4.331-9.632-9.632-9.632H77.928c-5.301,0-9.632,4.331-9.632,9.632v263.499c0,5.301,4.331,9.632,9.632,9.632h146.877
	C213.944,292.461,207.35,276.493,207.35,258.844z"/>
<path style="fill:#FFC10D;" d="M263.463,123.927c-6.012,0-10.925-4.848-10.925-10.925c0-6.012,4.848-10.925,10.925-10.925h16.808
	V82.683H243.94c-6.012,0-10.925-4.848-10.925-10.925c0-6.012,4.848-10.925,10.925-10.925h36.331v-6.4
	c0-6.012-4.848-10.925-10.925-10.925H100.942c-6.012,0-10.925,4.848-10.925,10.925v217.471c0,6.012,4.848,10.925,10.925,10.925
	h110.739c-2.78-7.499-4.396-15.58-4.396-24.048c0-38.271,31.16-69.366,69.366-69.366c1.228,0,2.457,0.065,3.62,0.129v-65.681
	h-16.808V123.927z"/>
<g>
	<path style="fill:#FFFFFF;" d="M163.455,102.4c6.594,0,11.96-5.301,11.96-11.96c0-6.659-5.43-11.96-11.96-11.96
		s-11.96,5.43-11.96,11.96S156.926,102.4,163.455,102.4z"/>
	<path style="fill:#FFFFFF;" d="M201.338,172.154c0-3.168-1.681-6.077-4.396-7.564c-3.814-2.069-7.822-3.814-11.96-5.172
		l-14.222,16.097c-4.202,4.655-12.218,4.655-16.291,0l-14.222-16.097c-4.202,1.422-8.21,3.103-11.96,5.172
		c-2.715,1.487-4.396,4.396-4.396,7.564v18.941h77.64v-18.941H201.338z"/>
</g>
<g>
	<path style="fill:#56ACE0;" d="M262.752,326.788v31.806l7.046-5.818c4.008-3.232,9.762-3.232,13.77,0l7.046,5.818v-31.806
		c-4.461,0.905-9.18,1.422-13.899,1.422C271.867,328.275,267.213,327.693,262.752,326.788z"/>
	<path style="fill:#56ACE0;" d="M276.651,211.329c-26.182,0-47.515,21.333-47.515,47.515c0,26.182,21.333,47.515,47.515,47.515
		s47.515-21.333,47.515-47.515C324.296,232.663,302.962,211.329,276.651,211.329z"/>
</g>
<g>
	<path style="fill:#194F82;" d="M163.455,124.186c18.618,0,33.745-15.127,33.745-33.745s-15.127-33.81-33.745-33.81
		S129.71,71.758,129.71,90.376S144.837,124.186,163.455,124.186z M163.455,78.416c6.594,0,11.96,5.43,11.96,11.96
		s-5.43,11.96-11.96,11.96s-11.96-5.301-11.96-11.96C151.496,83.717,156.926,78.416,163.455,78.416z"/>
	<path style="fill:#194F82;" d="M207.35,145.39c-7.37-4.008-15.321-7.046-23.661-8.986c-3.943-0.905-7.952,0.388-10.667,3.426
		l-10.602,11.96l-10.602-11.96c-2.651-3.038-6.723-4.331-10.667-3.426c-8.339,1.939-16.291,4.978-23.661,8.986
		c-9.762,5.301-15.774,15.515-15.774,26.764v29.802c0,6.012,4.848,10.925,10.925,10.925h99.426c6.012,0,10.925-4.848,10.925-10.925
		v-29.802C223.124,160.97,217.112,150.691,207.35,145.39z M201.209,191.095h-77.511v-18.941c0-3.168,1.681-6.077,4.396-7.564
		c3.814-2.069,7.822-3.814,11.96-5.172l14.222,16.097c4.202,4.655,12.218,4.655,16.291,0l14.222-16.097
		c4.202,1.422,8.21,3.103,11.96,5.172c2.715,1.487,4.396,4.396,4.396,7.564v18.941H201.209z"/>
	<path style="fill:#194F82;" d="M185.177,245.786h-68.008c-6.012,0-10.925,4.848-10.925,10.925c0,6.012,4.848,10.925,10.925,10.925
		h68.008c6.012,0,10.925-4.848,10.925-10.925C196.102,250.634,191.189,245.786,185.177,245.786z"/>
	<path style="fill:#194F82;" d="M323.973,208.226V31.547C323.973,14.158,309.815,0,292.554,0H77.928
		c-17.39,0-31.547,14.158-31.547,31.547v263.499c0,17.39,14.158,31.547,31.547,31.547h163.038v55.079
		c0,9.18,10.667,14.287,17.778,8.404l18.036-14.675l18.036,14.675c7.111,5.818,17.778,0.776,17.778-8.404v-63.418
		c20.105-12.154,33.616-34.133,33.616-59.345C346.082,238.933,337.548,220.897,323.973,208.226z M224.676,304.679H77.928
		c-5.43,0-9.762-4.331-9.762-9.632V31.547c0-5.301,4.331-9.632,9.632-9.632H292.36c5.301,0,9.632,4.331,9.632,9.632v162.909
		c-7.887-3.168-16.485-4.913-25.471-4.913c-38.271,0-69.366,31.16-69.366,69.366C207.221,276.428,213.88,292.461,224.676,304.679z
		 M290.744,358.594h-0.065l-7.046-5.818c-4.008-3.232-9.762-3.232-13.77,0l-7.046,5.818v-31.806
		c4.461,0.905,9.18,1.422,13.964,1.422c4.784,0,9.438-0.453,13.899-1.422v31.806H290.744z M276.651,306.36
		c-26.182,0-47.515-21.333-47.515-47.515c0-26.182,21.333-47.515,47.515-47.515s47.515,21.333,47.515,47.515
		C324.296,285.026,302.962,306.36,276.651,306.36z"/>
</g>
<g>
</g>
<g>
</g>
<g>
</g>
<g>
</g>
<g>
</g>
<g>
</g>
<g>
</g>
<g>
</g>
<g>
</g>
<g>
</g>
<g>
</g>
<g>
</g>
<g>
</g>
<g>
</g>
<g>
</g>
</svg>
